<svg xmlns="http://www.w3.org/2000/svg" viewBox="0 0 40 40">

  <defs>
    <radialGradient id="redDiscGrad" cx="40%" cy="40%" r="60%">
      <stop offset="0%" stop-color="#BF616A" />
      <stop offset="100%" stop-color="#A05159" />
    </radialGradient>
    <radialGradient id="yellowDiscGrad" cx="40%" cy="40%" r="60%">
      <stop offset="0%" stop-color="#EBCB8B" />
      <stop offset="100%" stop-color="#D9B77F" />
    </radialGradient>
  </defs>

  <rect x="0" y="0" width="40" height="40" fill="#4C566A" />

  <circle cx="5" cy="5" r="4.5" fill="#D8DEE9" />
  <circle cx="5" cy="15" r="4.5" fill="#D8DEE9" />
  <circle cx="5" cy="25" r="4.5" fill="#D8DEE9" />
  <circle cx="5" cy="35" r="4.5" fill="#D8DEE9" />

  <circle cx="15" cy="5" r="4.5" fill="#D8DEE9" />
  <circle cx="15" cy="15" r="4.5" fill="#D8DEE9" />
  <circle cx="15" cy="25" r="4.5" fill="#D8DEE9" />
  <circle cx="15" cy="35" r="4.5" fill="#D8DEE9" />

  <circle cx="25" cy="5" r="4.5" fill="#D8DEE9" />
  <circle cx="25" cy="15" r="4.5" fill="#D8DEE9" />
  <circle cx="25" cy="25" r="4.5" fill="#D8DEE9" />
  <circle cx="25" cy="35" r="4.5" fill="#D8DEE9" />

  <circle cx="35" cy="5" r="4.5" fill="#D8DEE9" />
  <circle cx="35" cy="15" r="4.5" fill="#D8DEE9" />
  <circle cx="35" cy="25" r="4.5" fill="#D8DEE9" />
  <circle cx="35" cy="35" r="4.5" fill="#D8DEE9" />


  <circle cx="5" cy="35" r="4.5" fill="url(#redDiscGrad)" /> <circle cx="5" cy="25" r="4.5" fill="url(#yellowDiscGrad)" /> <circle cx="5" cy="15" r="4.5" fill="url(#redDiscGrad)" /> <circle cx="15" cy="35" r="4.5" fill="url(#yellowDiscGrad)" /> <circle cx="15" cy="25" r="4.5" fill="url(#redDiscGrad)" /> </svg>
